<svg xmlns="http://www.w3.org/2000/svg" version="1.1" xmlns:xlink="http://www.w3.org/1999/xlink" xmlns:svgjs="http://svgjs.dev/svgjs" width="1500" height="579" viewBox="0 0 1500 579"><g transform="matrix(1,0,0,1,-0.9090909090909918,-0.17118125915442306)"><svg viewBox="0 0 396 153" data-background-color="#ffffff" preserveAspectRatio="xMidYMid meet" height="579" width="1500" xmlns="http://www.w3.org/2000/svg" xmlns:xlink="http://www.w3.org/1999/xlink"><g id="tight-bounds" transform="matrix(1,0,0,1,0.2400000000000091,0.04523442599416683)"><svg viewBox="0 0 395.52 152.90953114801167" height="152.90953114801167" width="395.52"><g><svg viewBox="0 0 673.1815671226714 260.2545454242805" height="152.90953114801167" width="395.52"><g transform="matrix(1,0,0,1,277.6615671226714,27.37124565722206)"><svg viewBox="0 0 395.52 205.51205410983636" height="205.51205410983636" width="395.52"><g id="textblocktransform"><svg viewBox="0 0 395.52 205.51205410983636" height="205.51205410983636" width="395.52" id="textblock"><g><svg viewBox="0 0 395.52 140.76063268892793" height="140.76063268892793" width="395.52"><g transform="matrix(1,0,0,1,0,0)"><svg width="395.52" viewBox="1.76 -36.11 111.11 39.55" height="140.76063268892793" data-palette-color="#919591"><path d="M13.26-6.59L13.26-6.59Q13.26-5.35 13.02-4.06 12.79-2.78 12.23-1.76 11.67-0.73 10.68-0.09 9.69 0.56 8.2 0.56L8.2 0.56Q6.57 0.56 5.47-0.32 4.37-1.2 3.65-2.65 2.93-4.1 2.55-5.99 2.17-7.89 1.99-9.91 1.81-11.94 1.78-13.98 1.76-16.02 1.76-17.75L1.76-17.75Q1.76-19.43 1.78-21.41 1.81-23.39 1.95-25.38 2.1-27.37 2.44-29.21 2.78-31.05 3.41-32.47 4.03-33.89 5-34.74 5.98-35.6 7.4-35.6L7.4-35.6Q8.18-35.6 8.81-35.28 9.45-34.96 9.94-34.46 10.42-33.96 10.82-33.33 11.21-32.69 11.5-32.06L11.5-32.06 11.4-36.11 12.26-36.11 12.6-25.56 11.74-25.49Q11.72-26.12 11.66-27.04 11.6-27.95 11.44-28.96 11.28-29.96 11-30.93 10.72-31.91 10.28-32.69 9.84-33.47 9.2-33.96 8.57-34.45 7.69-34.45L7.69-34.45Q6.84-34.45 6.26-33.56 5.69-32.67 5.31-31.23 4.93-29.79 4.72-28.02 4.52-26.25 4.42-24.46 4.32-22.68 4.31-21.11 4.3-19.53 4.3-18.51L4.3-18.51Q4.3-16.87 4.32-14.92 4.35-12.96 4.48-11.01 4.61-9.06 4.91-7.23 5.2-5.4 5.74-3.98 6.27-2.56 7.1-1.71 7.93-0.85 9.16-0.85L9.16-0.85Q9.91-0.85 10.46-1.2 11.01-1.54 11.38-2.08 11.74-2.61 11.96-3.32 12.18-4.03 12.29-4.76 12.4-5.49 12.43-6.2 12.45-6.91 12.45-7.45L12.45-7.45 13.21-7.45Q13.21-7.23 13.23-7.01 13.26-6.79 13.26-6.59ZM20.8-1.05L20.8-1.05 22.26-1.05 22.21-0.15 14.26-0.24 14.26-1.1 15.65-1.1Q15.94-1.1 16.21-1.27 16.48-1.44 16.66-1.68 16.84-1.93 16.95-2.22 17.06-2.51 17.06-2.76L17.06-2.76 17.21-22.75Q17.21-23.44 16.93-23.77 16.65-24.1 16.22-24.22 15.79-24.34 15.27-24.32 14.74-24.29 14.26-24.29L14.26-24.29 14.26-25.15Q15.65-25.15 17-25.17 18.36-25.2 19.75-25.2L19.75-25.2Q21.51-25.2 22.89-24.82 24.27-24.44 25.22-23.61 26.17-22.78 26.66-21.47 27.15-20.17 27.15-18.31L27.15-18.31Q27.15-17.33 26.91-16.27 26.68-15.21 26.18-14.29 25.68-13.38 24.89-12.74 24.09-12.11 22.95-12.01L22.95-12.01Q24.53-11.33 25.46-9.99 26.39-8.64 26.46-6.96L26.46-6.96Q26.51-5.35 26.6-3.75 26.68-2.15 26.8-0.56L26.8-0.56Q26.85 0.15 27.01 0.73 27.17 1.32 27.48 1.76 27.78 2.2 28.28 2.44 28.78 2.69 29.51 2.71L29.51 2.71 29.51 3.44Q28.49 3.44 27.61 3.1 26.73 2.76 26.05 2.2 25.36 1.64 24.92 0.9 24.48 0.17 24.36-0.61L24.36-0.61Q24.09-2.15 24.11-3.74 24.12-5.32 24-6.91L24-6.91Q23.95-7.54 23.78-8.39 23.61-9.23 23.24-10 22.87-10.77 22.31-11.3 21.75-11.84 20.97-11.84L20.97-11.84 19.55-11.84 19.5-2.71Q19.5-2.44 19.6-2.15 19.7-1.86 19.87-1.61 20.04-1.37 20.29-1.21 20.53-1.05 20.8-1.05ZM19.55-12.55L21.12-12.55Q22.24-12.55 22.91-13.18 23.58-13.82 23.94-14.73 24.29-15.65 24.4-16.7 24.51-17.75 24.51-18.6L24.51-18.6Q24.51-19.7 24.31-20.74 24.12-21.78 23.63-22.56 23.14-23.34 22.3-23.82 21.46-24.29 20.16-24.29L20.16-24.29Q20.02-24.29 19.89-24.29 19.77-24.29 19.65-24.24L19.65-24.24 19.55-12.55ZM36.71-3.59L36.81-6.05Q36.52-5.54 36.03-5.1 35.54-4.66 34.98-4.32 34.42-3.98 33.81-3.78 33.2-3.59 32.66-3.59L32.66-3.59Q31.83-3.59 31.22-3.94 30.61-4.3 30.2-4.87 29.78-5.44 29.57-6.16 29.37-6.88 29.37-7.64L29.37-7.64Q29.37-9.06 29.98-10.14 30.59-11.23 31.49-12.13 32.39-13.04 33.47-13.87 34.54-14.7 35.44-15.65 36.35-16.6 36.96-17.75 37.57-18.9 37.57-20.46L37.57-20.46Q37.59-21.22 37.42-22.05 37.25-22.88 36.82-23.57 36.4-24.27 35.74-24.71 35.08-25.15 34.17-25.15L34.17-25.15Q33.2-25.15 32.58-24.68 31.95-24.22 31.59-23.5 31.22-22.78 31.09-21.89 30.95-21 30.95-20.14L30.95-20.14Q30.95-19.8 31-19.29 31.05-18.77 31.17-18.3 31.29-17.82 31.5-17.48 31.71-17.14 32.03-17.14L32.03-17.14Q32.37-17.14 32.58-17.36 32.78-17.58 32.89-17.88 33-18.19 33.02-18.53 33.03-18.87 33-19.14L33-19.14 33.86-19.19Q33.88-18.63 33.8-18.1 33.71-17.58 33.49-17.16 33.27-16.75 32.91-16.5 32.54-16.26 32.03-16.26L32.03-16.26Q31.32-16.26 30.84-16.66 30.37-17.07 30.1-17.66 29.83-18.26 29.72-18.95 29.61-19.63 29.61-20.19L29.61-20.19Q29.61-21.29 29.9-22.34 30.2-23.39 30.78-24.23 31.37-25.07 32.27-25.59 33.17-26.1 34.42-26.1L34.42-26.1Q35.98-26.1 37.01-25.34 38.03-24.58 38.64-23.43 39.25-22.27 39.51-20.91 39.77-19.56 39.77-18.36L39.77-18.36Q39.77-15.26 39.55-12.19 39.33-9.13 39.33-6.01L39.33-6.01Q39.33-5.32 39.5-4.97 39.67-4.61 39.99-4.47 40.3-4.32 40.75-4.3 41.21-4.27 41.77-4.25L41.77-4.25 41.77-3.39Q40.47-3.44 39.22-3.48 37.96-3.52 36.71-3.59L36.71-3.59ZM34-5.15L34-5.15Q34.35-5.15 34.75-5.33 35.15-5.52 35.54-5.85 35.93-6.18 36.29-6.6 36.64-7.03 36.91-7.54L36.91-7.54 37.37-16.36Q36.66-15.38 35.72-14.42 34.79-13.45 33.94-12.45 33.1-11.45 32.5-10.38 31.9-9.3 31.9-8.11L31.9-8.11Q31.9-7.67 32.03-7.14 32.15-6.62 32.4-6.18 32.66-5.74 33.06-5.44 33.47-5.15 34-5.15ZM42.23-21.14L42.23-21.14 42.23-22 44.26-22.05Q44.23-23.39 44.22-24.3 44.21-25.22 44.21-25.84 44.21-26.46 44.21-26.88 44.21-27.29 44.21-27.66L44.21-27.66Q44.21-28.64 44.43-29.68 44.65-30.71 45.16-31.57 45.67-32.42 46.5-32.96 47.33-33.5 48.53-33.5L48.53-33.5Q50.07-33.5 50.99-32.57 51.92-31.64 51.92-30.1L51.92-30.1Q51.92-29.74 51.86-29.3 51.8-28.86 51.68-28.42 51.56-27.98 51.34-27.6 51.12-27.22 50.82-26.95L50.82-26.95 50.36-27.34Q50.77-27.81 50.97-28.53 51.16-29.25 51.16-29.81L51.16-29.81Q51.16-30.32 51.02-30.77 50.87-31.23 50.6-31.58 50.33-31.93 49.92-32.14 49.5-32.35 48.97-32.35L48.97-32.35Q48.19-32.35 47.76-31.9 47.33-31.45 47.12-30.81 46.92-30.18 46.87-29.46 46.82-28.74 46.82-28.2L46.82-28.2 46.82-22.09 46.87-22.09Q47.75-22.09 48.3-22.13 48.85-22.17 49.15-22.39 49.46-22.61 49.55-23.1 49.65-23.58 49.63-24.51L49.63-24.51 50.46-24.51 50.51-15.31 49.68-15.31 49.68-19.09Q49.68-19.92 49.27-20.58 48.87-21.24 47.97-21.24L47.97-21.24 46.82-21.24 47.06-4.35Q47.06-4.05 47.18-3.69 47.31-3.32 47.51-3 47.72-2.69 48.01-2.47 48.31-2.25 48.67-2.25L48.67-2.25 49.36-2.25 49.36-1.39 42.06-1.29 42.06-2.2 42.91-2.2Q43.25-2.2 43.56-2.37 43.86-2.54 44.1-2.82 44.33-3.1 44.46-3.43 44.6-3.76 44.57-4.05L44.57-4.05 44.26-21.19Q43.82-21.14 43.3-21.14 42.79-21.14 42.23-21.14ZM57.12-33.5L57.07-25.39 62.32-25.39 62.32-24.56 59.37-24.56Q58.85-24.56 58.43-24.28 58-24 57.7-23.56 57.41-23.12 57.25-22.61 57.09-22.09 57.07-21.66L57.07-21.66 56.97-3.59Q56.97-2.98 57.01-2.15 57.05-1.32 57.27-0.56 57.49 0.2 57.95 0.72 58.41 1.25 59.27 1.25L59.27 1.25Q59.85 1.25 60.22 0.95 60.59 0.66 60.79 0.22 61-0.22 61.07-0.73 61.15-1.25 61.12-1.71L61.12-1.71 62.03-1.49Q62.03-0.32 61.72 0.45 61.42 1.22 60.94 1.66 60.46 2.1 59.85 2.27 59.24 2.44 58.63 2.44L58.63 2.44Q57.44 2.44 56.64 1.83 55.85 1.22 55.39 0.31 54.92-0.61 54.73-1.71 54.53-2.81 54.53-3.76L54.53-3.76 54.63-24.56 51.53-24.56 51.53-25.39 54.63-25.39 54.68-31.4 57.12-33.5ZM68.03-30.1L68.03-30.1Q68.03-29.47 67.57-28.98 67.1-28.49 66.47-28.49L66.47-28.49Q65.83-28.49 65.34-28.98 64.86-29.47 64.86-30.1L64.86-30.1Q64.86-30.74 65.34-31.19 65.83-31.64 66.47-31.64L66.47-31.64Q67.1-31.64 67.57-31.19 68.03-30.74 68.03-30.1ZM67.76-7.01L70.01-6.96 70.01-6.1 63.02-6.1 63.02-7.01 65.32-7.01 65.37-22Q65.37-22.44 65.3-22.89 65.22-23.34 65.03-23.72 64.83-24.1 64.5-24.34 64.17-24.58 63.66-24.61L63.66-24.61 62.61-24.61 62.61-25.44 67.96-25.34 67.76-7.01ZM80.87-29.86L81.16-17.75 80.21-17.75 80.06-22.85Q80.04-23.54 79.87-24.33 79.7-25.12 79.32-25.79 78.94-26.46 78.37-26.9 77.79-27.34 76.96-27.34L76.96-27.34Q76.01-27.34 75.46-26.78 74.91-26.22 74.62-25.37 74.33-24.51 74.25-23.52 74.18-22.53 74.18-21.7L74.18-21.7Q74.18-20.21 74.58-19.06 74.99-17.9 75.58-16.98 76.18-16.06 76.88-15.39 77.57-14.72 78.16-14.21L78.16-14.21Q79.11-13.38 79.78-12.55 80.45-11.72 80.86-10.84 81.26-9.96 81.44-9 81.63-8.03 81.63-6.96L81.63-6.96Q81.63-5.49 81.25-4.28 80.87-3.08 80.15-2.21 79.43-1.34 78.39-0.87 77.35-0.39 76.01-0.39L76.01-0.39Q75.03-0.39 74.18-0.71 73.32-1.03 72.68-1.61 72.03-2.2 71.65-3.02 71.27-3.83 71.27-4.86L71.27-4.86Q71.27-5.71 71.58-6.43 71.88-7.15 72.43-7.67 72.98-8.18 73.7-8.46 74.42-8.74 75.28-8.74L75.28-8.74Q75.86-8.74 76.43-8.59L76.43-8.59 76.18-7.74Q75.94-7.84 75.69-7.87 75.45-7.91 75.23-7.91L75.23-7.91Q73.86-7.91 73-7.06 72.13-6.2 72.13-4.86L72.13-4.86Q72.13-4.13 72.4-3.48 72.67-2.83 73.14-2.34 73.62-1.86 74.25-1.57 74.89-1.29 75.62-1.29L75.62-1.29Q76.62-1.29 77.28-1.87 77.94-2.44 78.32-3.31 78.7-4.17 78.85-5.16 79.01-6.15 79.01-7.01L79.01-7.01Q79.01-8.62 78.49-9.83 77.96-11.04 77.18-11.79L77.18-11.79Q76.21-12.74 75.19-13.73 74.18-14.72 73.36-15.87 72.54-17.02 72.03-18.41 71.52-19.8 71.52-21.56L71.52-21.56Q71.52-24.9 72.86-26.62 74.2-28.34 76.43-28.34L76.43-28.34Q77.62-28.34 78.54-27.77 79.45-27.2 80.01-26.15L80.01-26.15 79.92-29.81 80.87-29.86ZM88.26-33.5L88.21-25.39 93.46-25.39 93.46-24.56 90.51-24.56Q90-24.56 89.57-24.28 89.14-24 88.85-23.56 88.56-23.12 88.4-22.61 88.24-22.09 88.21-21.66L88.21-21.66 88.12-3.59Q88.12-2.98 88.15-2.15 88.19-1.32 88.41-0.56 88.63 0.2 89.09 0.72 89.56 1.25 90.41 1.25L90.41 1.25Q91 1.25 91.36 0.95 91.73 0.66 91.94 0.22 92.15-0.22 92.22-0.73 92.29-1.25 92.27-1.71L92.27-1.71 93.17-1.49Q93.17-0.32 92.87 0.45 92.56 1.22 92.08 1.66 91.61 2.1 91 2.27 90.39 2.44 89.78 2.44L89.78 2.44Q88.58 2.44 87.79 1.83 86.99 1.22 86.53 0.31 86.07-0.61 85.87-1.71 85.68-2.81 85.68-3.76L85.68-3.76 85.77-24.56 82.67-24.56 82.67-25.39 85.77-25.39 85.82-31.4 88.26-33.5ZM99.17-30.1L99.17-30.1Q99.17-29.47 98.71-28.98 98.25-28.49 97.61-28.49L97.61-28.49Q96.98-28.49 96.49-28.98 96-29.47 96-30.1L96-30.1Q96-30.74 96.49-31.19 96.98-31.64 97.61-31.64L97.61-31.64Q98.25-31.64 98.71-31.19 99.17-30.74 99.17-30.1ZM98.91-7.01L101.15-6.96 101.15-6.1 94.17-6.1 94.17-7.01 96.46-7.01 96.51-22Q96.51-22.44 96.44-22.89 96.37-23.34 96.17-23.72 95.98-24.1 95.65-24.34 95.32-24.58 94.8-24.61L94.8-24.61 93.75-24.61 93.75-25.44 99.1-25.34 98.91-7.01ZM112.87-28.86L112.87-16.6 112.01-16.6 112.01-19.65Q112.01-20.41 111.84-21.41 111.67-22.41 111.28-23.32 110.89-24.22 110.22-24.83 109.55-25.44 108.57-25.44L108.57-25.44Q107.42-25.44 106.8-24.82 106.18-24.19 105.9-22.77 105.62-21.34 105.57-18.98 105.52-16.63 105.52-13.16L105.52-13.16Q105.52-12.6 105.51-11.58 105.5-10.57 105.56-9.38 105.62-8.18 105.78-6.93 105.93-5.69 106.26-4.66 106.59-3.64 107.14-2.99 107.69-2.34 108.52-2.34L108.52-2.34Q109.25-2.34 109.8-2.67 110.35-3 110.74-3.54 111.13-4.08 111.39-4.75 111.65-5.42 111.78-6.13 111.92-6.84 111.95-7.51 111.99-8.18 111.96-8.69L111.96-8.69 112.82-8.69Q112.82-7.52 112.61-6.24 112.4-4.96 111.87-3.88 111.33-2.81 110.43-2.1 109.52-1.39 108.11-1.39L108.11-1.39Q106.81-1.39 105.92-2.06 105.03-2.73 104.45-3.81 103.86-4.88 103.55-6.23 103.25-7.57 103.1-8.91 102.96-10.25 102.93-11.47 102.91-12.7 102.91-13.5L102.91-13.5Q102.91-15.19 102.93-16.82 102.96-18.46 103.1-19.91 103.25-21.36 103.55-22.61 103.86-23.85 104.43-24.74 105.01-25.63 105.89-26.15 106.76-26.66 108.06-26.66L108.06-26.66Q109.45-26.66 110.46-25.88 111.48-25.1 112.01-23.85L112.01-23.85 112.01-28.86 112.87-28.86Z" opacity="1" transform="matrix(1,0,0,1,0,0)" fill="#919591" class="wordmark-text-0" data-fill-palette-color="primary" id="text-0"></path></svg></g></svg></g><g transform="matrix(1,0,0,1,0,173.99083981159927)"><svg viewBox="0 0 326.89727999999997 31.52121429823707" height="31.52121429823707" width="326.89727999999997"><g transform="matrix(1,0,0,1,0,0)"><svg width="326.89727999999997" viewBox="0.2 -37.55 513.3 49.5" height="31.52121429823707" data-palette-color="#636365"><path d="M20.1-35L31.65-2.2 30.5-3.2 35.2-2.15 35.2 0 22.2 0 22.2-2.15 27.4-3.15 27-2.45 24.35-10.45 25.1-9.85 9.8-9.85 10.5-10.45 7.65-2.55 7.4-3.1 12.5-2.15 12.5 0 0.2 0 0.2-2.15 4.8-3.2 3.75-2.3 15.95-34.85 20.1-35ZM18.25-32.45L11.05-12.2 10.65-12.85 24.3-12.85 23.85-12.15 17.3-32.5 18.25-32.45ZM50.1 0L37.35 0 37.35-2.15 41.75-3.1 41.25-2.35 41.25-23.9 41.8-23.15 37.35-24.1 37.35-26.25 44.35-26.6 44.9-21.7 44.35-21.9Q46.6-24.25 48.75-25.55 50.9-26.85 53.45-26.85L53.45-26.85Q55.05-26.85 56.8-26.35L56.8-26.35 56.5-19.05 54-19.05 53.4-24.3 53.85-23.4Q53.5-23.5 53.1-23.55 52.7-23.6 52.3-23.6L52.3-23.6Q50.3-23.6 48.42-22.4 46.55-21.2 44.85-19.3L44.85-19.3 45.25-20.5 45.25-2.35 44.65-3.1 50.1-2.15 50.1 0ZM68.3 0.45L68.3 0.45Q65.7 0.45 64.2-1.18 62.7-2.8 62.7-6.1L62.7-6.1 62.7-24.25 63.35-23.6 58.2-23.6 58.2-25.8 63.4-26.55 62.7-25.75 62.7-32.35 66.7-33 66.7-25.75 66.15-26.4 74-26.4 73.85-23.6 66.15-23.6 66.7-24.25 66.7-6.65Q66.7-4.55 67.52-3.6 68.35-2.65 69.85-2.65L69.85-2.65Q70.75-2.65 71.8-2.95 72.85-3.25 74.05-3.8L74.05-3.8 74.9-1.5Q71.35 0.45 68.3 0.45ZM85.44-26.55L85.44-2.55 84.99-3.1 89.34-2.15 89.34 0 77.54 0 77.54-2.15 81.89-3.1 81.44-2.55 81.44-23.65 81.84-23.2 77.54-24.1 77.54-26.25 85.44-26.55ZM83.14-31.95L83.14-31.95Q81.99-31.95 81.24-32.7 80.49-33.45 80.49-34.75L80.49-34.75Q80.49-36.1 81.27-36.83 82.04-37.55 83.19-37.55L83.19-37.55Q84.39-37.55 85.14-36.85 85.89-36.15 85.89-34.75L85.89-34.75Q85.89-33.4 85.09-32.68 84.29-31.95 83.14-31.95ZM97.49-20L97.49-20Q97.49-18.4 98.54-17.5 99.59-16.6 101.24-16.03 102.89-15.45 104.74-14.9 106.59-14.35 108.24-13.55 109.89-12.75 110.94-11.35 111.99-9.95 111.99-7.65L111.99-7.65Q111.99-5 110.54-3.2 109.09-1.4 106.62-0.48 104.14 0.45 101.09 0.45L101.09 0.45Q99.24 0.45 97.29 0.15 95.34-0.15 93.29-0.7L93.29-0.7 93.64-7.4 96.19-7.4 96.69-2.5 96.24-3.05Q97.39-2.75 98.74-2.55 100.09-2.35 101.24-2.35L101.24-2.35Q103.04-2.35 104.57-2.88 106.09-3.4 107.04-4.42 107.99-5.45 107.99-7L107.99-7Q107.99-8.65 106.97-9.6 105.94-10.55 104.29-11.15 102.64-11.75 100.82-12.28 98.99-12.8 97.34-13.63 95.69-14.45 94.64-15.8 93.59-17.15 93.59-19.5L93.59-19.5Q93.59-22.05 94.92-23.68 96.24-25.3 98.42-26.08 100.59-26.85 103.09-26.85L103.09-26.85Q104.79-26.85 106.84-26.5 108.89-26.15 111.04-25.45L111.04-25.45 110.79-19.8 108.24-19.8 107.49-23.95 108.09-23.25Q105.49-24 103.19-24L103.19-24Q100.74-24 99.12-22.98 97.49-21.95 97.49-20ZM125.19 0.45L125.19 0.45Q122.59 0.45 121.09-1.18 119.59-2.8 119.59-6.1L119.59-6.1 119.59-24.25 120.24-23.6 115.09-23.6 115.09-25.8 120.29-26.55 119.59-25.75 119.59-32.35 123.59-33 123.59-25.75 123.04-26.4 130.89-26.4 130.74-23.6 123.04-23.6 123.59-24.25 123.59-6.65Q123.59-4.55 124.41-3.6 125.24-2.65 126.74-2.65L126.74-2.65Q127.64-2.65 128.69-2.95 129.74-3.25 130.94-3.8L130.94-3.8 131.79-1.5Q128.24 0.45 125.19 0.45ZM147.19 0L134.44 0 134.44-2.15 138.84-3.1 138.34-2.35 138.34-23.9 138.89-23.15 134.44-24.1 134.44-26.25 141.44-26.6 141.99-21.7 141.44-21.9Q143.69-24.25 145.84-25.55 147.99-26.85 150.54-26.85L150.54-26.85Q152.14-26.85 153.89-26.35L153.89-26.35 153.59-19.05 151.09-19.05 150.49-24.3 150.94-23.4Q150.59-23.5 150.19-23.55 149.79-23.6 149.39-23.6L149.39-23.6Q147.39-23.6 145.51-22.4 143.64-21.2 141.94-19.3L141.94-19.3 142.34-20.5 142.34-2.35 141.74-3.1 147.19-2.15 147.19 0ZM155.38 11.7L155.38 11.7 155.73 8.75Q156.33 8.85 156.86 8.9 157.38 8.95 157.83 8.95L157.83 8.95Q160.28 8.95 161.81 7.83 163.33 6.7 164.38 4.45 165.43 2.2 166.53-1.15L166.53-1.15 166.38 0.35 157.03-24 157.58-23.55 154.33-24.1 154.33-26.25 165.28-26.6 165.28-24.4 160.78-23.65 161.08-24.1 168.53-2.85 167.63-3.05 174.78-24 175.08-23.55 170.68-24.1 170.68-26.25 181.28-26.6 181.28-24.4 177.78-23.6 178.48-24.05 169.68 0.1Q168.78 2.6 167.81 4.75 166.83 6.9 165.58 8.53 164.33 10.15 162.53 11.05 160.73 11.95 158.18 11.95L158.18 11.95Q157.03 11.95 155.38 11.7ZM200.88-26.55L200.88-2.55 200.43-3.1 204.78-2.15 204.78 0 192.98 0 192.98-2.15 197.33-3.1 196.88-2.55 196.88-23.65 197.28-23.2 192.98-24.1 192.98-26.25 200.88-26.55ZM198.58-31.95L198.58-31.95Q197.43-31.95 196.68-32.7 195.93-33.45 195.93-34.75L195.93-34.75Q195.93-36.1 196.7-36.83 197.48-37.55 198.63-37.55L198.63-37.55Q199.83-37.55 200.58-36.85 201.33-36.15 201.33-34.75L201.33-34.75Q201.33-33.4 200.53-32.68 199.73-31.95 198.58-31.95ZM219.53 0L207.88 0 207.88-2.15 212.38-3.15 211.78-2.4 211.78-23.9 212.38-23.15 207.88-24.1 207.88-26.25 214.88-26.6 215.43-21.7 214.88-21.9Q217.38-24.45 220.1-25.65 222.83-26.85 225.28-26.85L225.28-26.85Q228.58-26.85 230.75-24.83 232.93-22.8 232.88-18.55L232.88-18.55 232.88-2.4 232.38-3.1 236.78-2.15 236.78 0 225.13 0 225.13-2.15 229.48-3.1 228.88-2.35 228.88-17.7Q228.88-20.8 227.48-22.25 226.08-23.7 223.73-23.7L223.73-23.7Q221.88-23.7 219.7-22.7 217.53-21.7 215.43-19.6L215.43-19.6 215.78-20.4 215.78-2.35 215.28-3.05 219.53-2.15 219.53 0ZM271.92-2.3L272.82-8.2 275.32-8.2 275.32 0 250.07 0 250.07-2.15 255.02-3.2 254.37-2.3 254.37-32.5 255.02-31.6 250.07-32.5 250.07-34.65 258.42-34.9 274.72-34.9 274.72-27 272.22-27 271.32-32.5 272.17-31.85 257.72-31.85 258.47-32.6 258.47-18.6 257.72-19.35 271.07-19.35 271.07-16.35 257.72-16.35 258.47-17.2 258.47-2.3 257.72-3.05 272.82-3.05 271.92-2.3ZM294.77-24.1L294.77-26.25 305.22-26.6 305.22-24.4 301.82-23.4 302.52-24.15 293.82 0.1 289.12 0.1 281.17-24.05 281.87-23.4 278.42-24.1 278.42-26.25 289.42-26.6 289.42-24.4 284.87-23.55 285.27-24.15 291.97-2.45 291.57-2.45 298.82-24 299.12-23.55 294.77-24.1ZM318.82 0.45L318.82 0.45Q315.47 0.45 312.89-1.07 310.32-2.6 308.87-5.55 307.42-8.5 307.42-12.75L307.42-12.75Q307.42-17.1 308.92-20.25 310.42-23.4 313.17-25.13 315.92-26.85 319.62-26.85L319.62-26.85Q323.12-26.85 325.39-25.38 327.67-23.9 328.79-21.3 329.92-18.7 329.92-15.35L329.92-15.35Q329.92-14.8 329.87-14.25 329.82-13.7 329.72-12.9L329.72-12.9 310.47-12.9 310.47-15.75 326.22-15.75 325.77-15.45Q325.82-17.7 325.22-19.6 324.62-21.5 323.17-22.65 321.72-23.8 319.32-23.8L319.32-23.8Q316.77-23.8 315.02-22.45 313.27-21.1 312.42-18.75 311.57-16.4 311.57-13.3L311.57-13.3Q311.57-10 312.52-7.63 313.47-5.25 315.29-3.95 317.12-2.65 319.77-2.65L319.77-2.65Q321.62-2.65 323.82-3.38 326.02-4.1 328.37-5.6L328.37-5.6 329.82-3.35Q327.02-1.45 324.22-0.5 321.42 0.45 318.82 0.45ZM347.01 0L334.26 0 334.26-2.15 338.66-3.1 338.16-2.35 338.16-23.9 338.71-23.15 334.26-24.1 334.26-26.25 341.26-26.6 341.81-21.7 341.26-21.9Q343.51-24.25 345.66-25.55 347.81-26.85 350.36-26.85L350.36-26.85Q351.96-26.85 353.71-26.35L353.71-26.35 353.41-19.05 350.91-19.05 350.31-24.3 350.76-23.4Q350.41-23.5 350.01-23.55 349.61-23.6 349.21-23.6L349.21-23.6Q347.21-23.6 345.34-22.4 343.46-21.2 341.76-19.3L341.76-19.3 342.16-20.5 342.16-2.35 341.56-3.1 347.01-2.15 347.01 0ZM355.21 11.7L355.21 11.7 355.56 8.75Q356.16 8.85 356.69 8.9 357.21 8.95 357.66 8.95L357.66 8.95Q360.11 8.95 361.64 7.83 363.16 6.7 364.21 4.45 365.26 2.2 366.36-1.15L366.36-1.15 366.21 0.35 356.86-24 357.41-23.55 354.16-24.1 354.16-26.25 365.11-26.6 365.11-24.4 360.61-23.65 360.91-24.1 368.36-2.85 367.46-3.05 374.61-24 374.91-23.55 370.51-24.1 370.51-26.25 381.11-26.6 381.11-24.4 377.61-23.6 378.31-24.05 369.51 0.1Q368.61 2.6 367.64 4.75 366.66 6.9 365.41 8.53 364.16 10.15 362.36 11.05 360.56 11.95 358.01 11.95L358.01 11.95Q356.86 11.95 355.21 11.7ZM405.51-13.35L405.51-13.35 400.86-13.35 401.76-14.1 401.76-2.3 401.06-3.15 407.26-2.15 407.26 0 393.36 0 393.36-2.15 398.41-3.2 397.66-2.3 397.66-32.55 398.51-31.6 393.36-32.5 393.36-34.65 401.86-34.9 407.51-34.9Q411.36-34.9 413.86-33.6 416.36-32.3 417.61-30 418.86-27.7 418.86-24.65L418.86-24.65Q418.86-21.3 417.36-18.75 415.86-16.2 412.88-14.78 409.91-13.35 405.51-13.35ZM406.91-31.85L406.91-31.85 401.01-31.85 401.76-32.6 401.76-15.65 400.86-16.4 405.51-16.4Q409.91-16.4 412.28-18.6 414.66-20.8 414.66-24.55L414.66-24.55Q414.66-27.95 412.68-29.9 410.71-31.85 406.91-31.85ZM430.5-26.55L430.5-2.55 430.05-3.1 434.4-2.15 434.4 0 422.6 0 422.6-2.15 426.95-3.1 426.5-2.55 426.5-23.65 426.9-23.2 422.6-24.1 422.6-26.25 430.5-26.55ZM428.2-31.95L428.2-31.95Q427.05-31.95 426.3-32.7 425.55-33.45 425.55-34.75L425.55-34.75Q425.55-36.1 426.33-36.83 427.1-37.55 428.25-37.55L428.25-37.55Q429.45-37.55 430.2-36.85 430.95-36.15 430.95-34.75L430.95-34.75Q430.95-33.4 430.15-32.68 429.35-31.95 428.2-31.95ZM449.4 0.45L449.4 0.45Q446.05 0.45 443.48-1.07 440.9-2.6 439.45-5.55 438-8.5 438-12.75L438-12.75Q438-17.1 439.5-20.25 441-23.4 443.75-25.13 446.5-26.85 450.2-26.85L450.2-26.85Q453.7-26.85 455.98-25.38 458.25-23.9 459.38-21.3 460.5-18.7 460.5-15.35L460.5-15.35Q460.5-14.8 460.45-14.25 460.4-13.7 460.3-12.9L460.3-12.9 441.05-12.9 441.05-15.75 456.8-15.75 456.35-15.45Q456.4-17.7 455.8-19.6 455.2-21.5 453.75-22.65 452.3-23.8 449.9-23.8L449.9-23.8Q447.35-23.8 445.6-22.45 443.85-21.1 443-18.75 442.15-16.4 442.15-13.3L442.15-13.3Q442.15-10 443.1-7.63 444.05-5.25 445.88-3.95 447.7-2.65 450.35-2.65L450.35-2.65Q452.2-2.65 454.4-3.38 456.6-4.1 458.95-5.6L458.95-5.6 460.4-3.35Q457.6-1.45 454.8-0.5 452 0.45 449.4 0.45ZM476.55 0.45L476.55 0.45Q473.35 0.45 470.77-1.13 468.2-2.7 466.72-5.7 465.25-8.7 465.25-12.9L465.25-12.9Q465.25-16.55 466.27-19.18 467.3-21.8 469.05-23.5 470.8-25.2 473.07-26.03 475.35-26.85 477.8-26.85L477.8-26.85Q479.8-26.85 482.07-26.3 484.35-25.75 486.05-24.8L486.05-24.8 485.85-18.55 483.15-18.55 482.5-23.25 482.9-22.8Q481.65-23.4 480.25-23.65 478.85-23.9 477.75-23.9L477.75-23.9Q475.15-23.9 473.27-22.58 471.4-21.25 470.4-18.85 469.4-16.45 469.4-13.15L469.4-13.15Q469.4-9.75 470.45-7.4 471.5-5.05 473.32-3.85 475.15-2.65 477.45-2.65L477.45-2.65Q479.25-2.65 481.25-3.4 483.25-4.15 485.4-5.65L485.4-5.65 486.8-3.45Q484.2-1.45 481.6-0.5 479 0.45 476.55 0.45ZM502.4 0.45L502.4 0.45Q499.05 0.45 496.47-1.07 493.9-2.6 492.45-5.55 491-8.5 491-12.75L491-12.75Q491-17.1 492.5-20.25 494-23.4 496.75-25.13 499.5-26.85 503.2-26.85L503.2-26.85Q506.7-26.85 508.97-25.38 511.25-23.9 512.37-21.3 513.5-18.7 513.5-15.35L513.5-15.35Q513.5-14.8 513.45-14.25 513.4-13.7 513.3-12.9L513.3-12.9 494.05-12.9 494.05-15.75 509.8-15.75 509.35-15.45Q509.4-17.7 508.8-19.6 508.2-21.5 506.75-22.65 505.3-23.8 502.9-23.8L502.9-23.8Q500.35-23.8 498.6-22.45 496.85-21.1 496-18.75 495.15-16.4 495.15-13.3L495.15-13.3Q495.15-10 496.1-7.63 497.05-5.25 498.87-3.95 500.7-2.65 503.35-2.65L503.35-2.65Q505.2-2.65 507.4-3.38 509.6-4.1 511.95-5.6L511.95-5.6 513.4-3.35Q510.6-1.45 507.8-0.5 505 0.45 502.4 0.45Z" opacity="1" transform="matrix(1,0,0,1,0,0)" fill="#636365" class="slogan-text-1" data-fill-palette-color="secondary" id="text-1"></path></svg></g></svg></g></svg></g></svg></g><g><svg viewBox="0 0 244.43136 260.2545454242805" height="260.2545454242805" width="244.43136"><g><svg xmlns="http://www.w3.org/2000/svg" xmlns:xlink="http://www.w3.org/1999/xlink" version="1.1" x="0" y="0" viewBox="15.565 0.00003530834276390532 480.87000000000006 511.99896469165725" style="enable-background:new 0 0 512 512;" xml:space="preserve" height="260.2545454242805" width="244.43136" class="icon-icon-0" data-fill-palette-color="accent" id="icon-0"><g fill="#636365" data-fill-palette-color="accent"><g fill="#636365" data-fill-palette-color="accent"><g fill="#636365" data-fill-palette-color="accent"><g fill="#636365" data-fill-palette-color="accent"><path d="M481.159 281.863C482.737 281.863 484.319 280.81 485.372 279.754 486.424 278.701 487.482 277.125 487.482 274.957 487.482 273.373 486.423 271.797 485.372 270.738 484.319 269.629 482.737 268.633 481.159 268.633 479.106 268.633 477.527 269.629 476.476 270.738 475.418 271.797 474.892 273.373 474.892 274.957 474.892 277.125 475.418 278.701 476.476 279.754 477.527 280.811 479.106 281.863 481.159 281.863M491.695 264.355C494.331 267.519 496.435 271.269 496.435 274.957 496.435 279.227 494.331 283.504 491.695 286.141 488.534 288.77 484.845 290.352 481.159 290.352 477.003 290.352 472.783 288.77 470.152 286.141 467.517 282.914 465.933 279.227 465.933 274.957 465.933 271.269 467.517 266.992 470.152 264.355 473.314 261.726 477.003 260.144 481.159 260.144 485.372 260.145 489.061 261.727 491.695 264.355" fill="#636365" data-fill-palette-color="accent"></path><path d="M449.664 133.395V173.734C449.664 176.371 447.611 178.474 445.506 178.474A4.72 4.72 0 0 1 440.763 173.734V133.395C440.763 130.766 442.872 129.182 445.506 129.182 447.611 129.182 449.664 130.766 449.664 133.395" fill="#636365" data-fill-palette-color="accent"></path><path d="M458.09 341.756V374.652C458.09 377.289 455.986 378.927 453.352 378.927H431.341V370.437H449.139V346.55H431.341V337.534H453.352C455.986 337.535 458.09 339.119 458.09 341.756" fill="#636365" data-fill-palette-color="accent"></path><path d="M439.185 490.804A4.72 4.72 0 0 1 443.925 495.544C443.925 497.655 441.821 499.757 439.185 499.757H416.117C414.013 499.757 411.903 497.655 411.903 495.544 411.903 492.909 414.013 490.804 416.117 490.804z" fill="#636365" data-fill-palette-color="accent"></path><path d="M423.96 502.983C426.596 502.983 428.18 505.087 428.18 507.196 428.18 509.831 426.596 511.999 423.96 511.999H374.61C372.031 511.999 369.87 509.831 369.87 507.196 369.87 505.087 372.031 502.983 374.61 502.983z" fill="#636365" data-fill-palette-color="accent"></path><path d="M436.55 58.114C438.658 59.165 439.71 62.384 438.127 64.493 438.127 65.02 437.601 65.546 436.55 66.071L420.799 75.62C418.695 76.671 415.591 75.62 414.539 73.509 413.48 71.4 414.013 68.708 416.116 67.655L425.543 61.858 416.116 56.53C414.012 55.477 413.48 52.317 414.539 50.149 415.591 48.045 418.695 47.514 420.799 48.571z" fill="#636365" data-fill-palette-color="accent"></path><path d="M462.311 188.549V120.167C462.311 117.474 461.252 115.37 459.674 113.261 457.564 111.677 455.455 110.626 452.826 110.626H424.486C421.856 110.626 419.746 111.677 418.226 113.261 416.116 115.37 415.064 117.474 415.064 120.167V188.549C415.064 191.178 416.116 193.871 418.226 195.455 419.746 197.033 421.856 198.09 424.486 198.09H452.826C455.455 198.09 457.563 197.033 459.674 195.455 461.252 193.871 462.311 191.178 462.311 188.549M471.205 120.167V188.549C471.205 193.871 469.096 198.09 465.934 201.836 462.311 204.996 457.564 207.106 452.827 207.106H424.487C419.747 207.106 415.065 204.997 411.903 201.836 408.216 198.09 406.107 193.871 406.107 188.549V120.167C406.107 115.37 408.216 110.626 411.903 106.88 415.065 103.72 419.747 101.61 424.487 101.61H452.827C457.564 101.61 462.311 103.719 465.934 106.88 469.096 110.625 471.205 115.37 471.205 120.167" fill="#636365" data-fill-palette-color="accent"></path><path d="M394.574 370.965C395.626 369.914 396.678 367.746 396.678 365.11 396.678 363.006 395.626 360.897 394.574 359.255 392.989 357.677 390.886 356.626 388.251 356.626 386.143 356.626 384.095 357.677 382.512 359.255 380.933 360.898 379.882 363.007 379.882 365.11 379.882 367.747 380.933 369.915 382.512 370.965 384.095 372.547 386.143 373.6 388.251 373.6 390.886 373.6 392.989 372.547 394.574 370.965M405.579 365.109C405.579 369.914 403.47 374.125 400.896 377.289 397.736 380.504 392.989 382.615 388.25 382.615 383.567 382.615 379.349 380.504 376.187 377.289 373.032 374.125 370.92 369.914 370.92 365.109 370.92 360.371 373.031 356.093 376.187 352.933 379.348 349.714 383.567 347.609 388.25 347.609 392.988 347.609 397.735 349.714 400.896 352.933 403.47 356.094 405.579 360.371 405.579 365.109" fill="#636365" data-fill-palette-color="accent"></path><path d="M422.383 414.402V296.207H354.177V414.402L388.251 468.497zM431.341 378.928V415.518C431.341 416.512 431.341 417.627 430.809 418.153L391.939 479.097C390.362 481.199 387.725 482.316 385.616 480.675A38 38 0 0 0 384.095 479.097L345.749 417.627C345.749 417.094 345.224 415.988 345.224 415.518V291.404C345.224 289.3 347.329 287.191 349.964 287.191H427.12C429.758 287.191 431.341 289.3 431.341 291.404z" fill="#636365" data-fill-palette-color="accent"></path><path d="M208.756 18.887C208.231 16.778 209.282 14.086 211.918 13.559L219.761 11.455C222.397 10.924 224.507 11.982 225.033 14.674 226.084 16.778 224.507 19.414 221.87 19.94L214.026 22.049C211.918 22.575 209.282 21.524 208.756 18.887" fill="#636365" data-fill-palette-color="accent"></path><path d="M214.027 33.758C215.08 36.395 213.501 38.498 210.866 39.555 208.756 40.082 206.12 38.498 205.595 36.395L203.485 28.43C202.96 25.793 204.543 23.627 206.647 22.575 209.282 22.05 211.393 23.628 211.918 25.794z" fill="#636365" data-fill-palette-color="accent"></path><path d="M208.23 10.924C208.755 13.033 207.178 15.727 205.068 16.252 202.433 16.777 200.329 15.727 199.272 13.033L197.751 5.601C196.699 2.964 198.277 0.855 200.855 0.33 202.96-0.723 205.595 0.855 206.121 3.492z" fill="#636365" data-fill-palette-color="accent"></path><path d="M199.797 25.793L191.953 27.904C189.317 28.955 187.214 27.377 186.688 24.742 185.63 22.574 187.214 19.939 189.85 19.414L197.751 17.309C199.797 16.778 202.433 17.836 202.96 20.465 203.485 22.575 202.433 25.268 199.797 25.793" fill="#636365" data-fill-palette-color="accent"></path><path d="M164.672 409.664C164.672 409.137 164.146 408.613 163.62 408.086 163.094 407.553 162.568 406.969 161.511 406.969 160.985 406.969 159.933 407.553 159.407 408.086 158.882 408.613 158.882 409.137 158.882 409.664 158.882 410.715 158.882 411.242 159.407 411.773 159.933 412.298 160.985 412.824 161.511 412.824 162.568 412.824 163.094 412.299 163.62 411.773 164.146 411.242 164.672 410.715 164.672 409.664M169.886 401.699C171.99 403.808 173.574 406.445 173.574 409.664 173.574 413.352 171.99 415.988 169.886 418.152 167.776 420.257 164.672 421.84 161.511 421.84 158.349 421.84 155.188 420.258 153.141 418.152 150.974 415.988 149.922 413.351 149.922 409.664 149.922 406.445 150.974 403.809 153.141 401.699 155.188 399.594 158.349 398.011 161.511 398.011 164.672 398.012 167.776 399.594 169.886 401.699" fill="#636365" data-fill-palette-color="accent"></path><path d="M60.701 341.756C60.701 339.119 62.811 337.535 65.447 337.535H345.224V346.551H69.66V370.438H345.224V378.928H65.446C62.81 378.928 60.7 377.289 60.7 374.653z" fill="#636365" data-fill-palette-color="accent"></path><path d="M187.74 182.162C188.792 180.058 191.428 179.533 193.537 181.109 194.59 181.636 195.115 182.162 195.641 183.277L197.224 188.548 201.38 182.161C202.959 180.057 205.594 179.532 207.703 181.108 208.755 181.635 209.281 182.161 209.281 183.276L211.391 188.547 215.604 182.16C216.598 180.056 219.76 179.531 221.87 181.107 222.396 181.634 222.922 182.16 223.448 183.275L225.558 188.546 229.189 182.159C230.829 180.055 233.402 179.53 235.511 181.106 236.563 181.633 237.089 182.159 237.615 183.274L239.198 188.545 243.412 182.158C244.933 180.054 247.568 179.529 249.678 181.105 250.203 181.632 251.256 182.158 251.256 183.273L253.366 188.544 257.579 182.157C258.638 180.053 261.21 179.528 263.32 181.104 264.371 181.631 264.898 182.157 265.424 183.272L267.007 188.543 271.22 182.156C272.804 180.052 275.434 179.527 277.543 181.103 278.538 181.63 279.064 182.156 279.064 183.271L281.173 188.542 285.386 182.155C286.444 180.051 289.606 179.526 291.126 181.102 292.179 181.629 292.761 182.155 293.23 183.27L294.871 188.541 299.027 182.154C300.61 180.05 303.241 179.525 305.349 181.101 306.401 181.628 306.933 182.154 306.933 183.269L308.98 188.54 313.195 182.153C314.777 180.049 317.413 179.524 319.516 181.1 320.041 181.627 321.101 182.153 321.101 183.268L323.205 188.539 327.361 182.152C328.418 180.048 331.048 179.523 333.159 181.099 334.21 181.626 334.741 182.152 335.268 183.267L336.845 188.538 341.001 182.151C342.585 180.047 345.22 179.522 347.325 181.098 348.376 181.625 348.907 182.151 348.907 183.266L351.011 188.537 355.231 182.15C356.282 180.046 358.854 179.521 360.964 181.097 362.017 181.624 362.548 182.15 363.074 183.265L364.651 188.536 368.865 182.149C370.391 180.045 373.028 179.52 375.132 181.096 376.184 181.623 376.715 182.149 376.715 183.264L380.928 194.327H389.824L389.298 114.3 68.603 174.19 74.395 186.424 75.39 183.264C76.448 181.096 79.078 179.52 81.187 180.573 82.239 181.096 83.297 182.149 83.823 183.264L85.932 188.535 90.088 182.148C91.14 180.044 93.776 179.519 95.88 181.095 96.938 181.622 97.463 182.148 97.989 183.263L99.567 188.534 103.787 182.147C105.308 180.043 107.943 179.518 110.047 181.094 111.104 181.621 111.63 182.147 111.63 183.262L113.74 188.533 117.953 182.146C119.005 180.042 122.109 179.517 123.687 181.093 124.745 181.62 125.27 182.146 125.797 183.261L127.375 188.532 131.594 182.145C133.172 180.041 135.808 179.516 137.854 181.092 138.912 181.619 139.438 182.145 139.438 183.26L141.547 188.531 145.76 182.144C146.812 180.04 149.916 179.515 152.084 181.091 152.609 181.618 153.135 182.144 153.662 183.259L155.714 188.53 159.928 182.143C160.98 180.039 163.615 179.514 165.725 181.09 166.776 181.617 167.302 182.143 167.771 183.258L169.355 188.529 173.569 182.142C175.146 180.038 177.782 179.513 179.891 181.089 180.417 181.616 181.47 182.142 181.47 183.257L183.522 188.528zM142.078 202.83C139.443 203.945 136.864 202.303 136.338 200.193L134.234 194.927 130.015 201.308C129.488 201.835 128.962 202.302 127.911 202.829 125.802 203.944 123.166 202.302 122.114 200.192L120.531 194.926 116.374 201.307C115.849 201.834 114.796 202.301 113.745 202.828 111.635 203.943 108.999 202.301 108.474 200.191L106.364 194.925 102.207 201.306C101.681 201.833 101.155 202.3 100.103 202.827 97.467 203.942 95.357 202.3 94.306 200.19L92.197 194.924 88.509 201.305C87.983 201.832 86.988 202.299 85.936 202.826 83.827 203.941 81.191 202.299 80.139 200.189L79.613 198.085 79.081 200.189C78.555 201.304 77.503 202.298 76.451 202.826 74.399 203.941 71.706 202.826 70.711 200.715L58.591 172.617 58.065 171.564C57.596 168.929 59.122 166.82 61.753 166.293L392.989 104.241H393.522A4.723 4.723 0 0 1 398.261 108.981L398.786 198.611C398.786 201.304 396.677 203.408 394.048 203.408H377.771C375.662 203.408 374.083 201.832 373.557 200.189L371.505 194.923 367.292 201.304C366.765 201.831 366.238 202.298 365.182 202.825 363.078 203.94 360.443 202.298 359.391 200.188L357.806 194.922 353.65 201.303C353.125 201.83 352.073 202.297 351.015 202.824 348.911 203.939 346.276 202.297 345.748 200.187L343.64 194.921 339.483 201.302C338.959 201.829 338.431 202.296 337.375 202.823 334.744 203.938 332.635 202.296 331.583 200.186L329.474 194.92 325.261 201.301A7.8 7.8 0 0 1 323.208 202.822C321.104 203.937 318.467 202.295 317.416 200.185L315.832 194.919 311.618 201.3C311.092 201.827 310.035 202.294 309.51 202.821 306.937 203.936 304.301 202.294 303.776 200.184L301.666 194.918 297.453 201.299C296.927 201.826 296.394 202.293 295.344 202.82 293.235 203.935 290.605 202.293 289.61 200.183L288.026 194.917 283.813 201.298C283.287 201.825 282.229 202.292 281.177 202.819 279.068 203.934 276.495 202.292 275.968 200.182L273.86 194.916 269.645 201.297C269.12 201.824 268.587 202.291 267.536 202.818 264.901 203.933 262.797 202.291 261.739 200.181L259.691 194.915 256.003 201.296C255.478 201.823 254.42 202.29 253.368 202.817 251.258 203.932 248.628 202.29 247.571 200.18L245.993 194.914 241.836 201.295C241.311 201.822 240.778 202.289 239.726 202.816 237.091 203.931 234.455 202.289 233.929 200.179L231.882 194.913 227.669 201.294C227.137 201.821 226.611 202.288 225.559 202.815 223.449 203.93 220.82 202.288 219.762 200.178L218.184 194.912 214.027 201.293C213.501 201.82 212.444 202.287 211.918 202.814 209.282 203.929 206.647 202.287 206.121 200.177L204.017 194.911 199.798 201.292C199.273 201.819 198.803 202.286 197.752 202.813 195.642 203.928 193.012 202.286 191.955 200.176L190.377 194.91 186.158 201.291C185.632 201.818 184.58 202.285 183.529 202.812 181.477 203.927 178.84 202.285 178.315 200.175L176.211 194.909 171.992 201.29C171.466 201.817 170.94 202.284 169.888 202.811 167.309 203.926 165.205 202.284 164.148 200.174L162.044 194.908 157.825 201.289C157.299 201.816 156.773 202.283 155.721 202.81 153.669 203.925 150.976 202.283 149.924 200.173L148.404 194.907 144.184 201.288C143.656 201.836 142.604 202.303 142.078 202.83" fill="#636365" data-fill-palette-color="accent"></path><polygon points="40.8,245.273 43.372,253.238 35.002,255.873 32.367,247.908     " fill="#636365" data-fill-palette-color="accent"></polygon><polygon points="37.107,263.832 28.679,266.467 26.569,258.566 35.002,255.873     " fill="#636365" data-fill-palette-color="accent"></polygon><polygon points="30.257,239.418 32.367,247.908 23.997,250.602 21.887,242.111     " fill="#636365" data-fill-palette-color="accent"></polygon><polygon points="23.997,250.602 26.569,258.566 18.2,261.195 15.565,252.711     " fill="#636365" data-fill-palette-color="accent"></polygon></g></g></g></g></svg></g></svg></g></svg></g><defs></defs></svg><rect width="395.52" height="152.90953114801167" fill="none" stroke="none" visibility="hidden"></rect></g></svg></g></svg>